<?xml version="1.0" encoding="UTF-8"?>
<svg id="Capa_2" data-name="Capa 2" xmlns="http://www.w3.org/2000/svg" viewBox="0 0 183.31 74.51">
  <g id="Capa_1-2" data-name="Capa 1">
    <g>
      <g>
        <path d="M31.66,71.44c-3.45-.75-6.78-1.75-10.13-2.91l-5.43-2.13c-3.77-1.47-8.45-4.29-11.47-7.1C2.1,56.94-.12,53.66,0,50.01c.18-5.33,4.51-9.45,8.62-12.11,2.51-1.63,5.12-2.98,7.87-4.11l5.43-1.97c5.07-1.61,10.2-2.75,15.45-3.57l7.68-1.07,10.92-1.04c.7-.07,1.3.51,1.3,1.24v4.88c0,.66-.49,1.2-1.12,1.24-6.03.42-11.94,1-17.9,1.75-7.64,1-14.83,2.36-22.06,5.13l-4.81,2.13c-1.41.63-2.66,1.49-3.93,2.39-1.04.74-1.95,1.55-2.79,2.53-1.65,1.92-2.4,4.2-1.32,6.64,1.02,2.31,3.21,4.17,5.24,5.56,4.41,3.03,10.11,5.21,15.21,6.68l7.87,1.92v3.21"/>
        <path d="M5.34,21.37c-1.84,1.81-3.13,4.34-2.15,6.89-.63.58-1.13,1.18-1.66,1.88l-.83-1.7c-1.56-3.98-.28-7.89,2.36-11.02,1.56-1.85,3.37-3.38,5.39-4.69,2.66-1.73,5.42-3.15,8.33-4.36,7.51-3.12,15.35-5.02,23.31-6.42C45.35,1.07,50.61.44,55.97,0c.69-.06,1.29.52,1.29,1.25v4.91c0,.65-.47,1.18-1.08,1.24l-8.89.81c-4.68.5-9.26,1.24-13.88,2.13-4.01.77-7.91,1.73-11.83,2.9-3.05.92-5.98,1.98-8.87,3.32l-3.11,1.63c-1.58.83-2.98,1.91-4.26,3.17Z"/>
        <path d="M3.11,40.73l-1.76,2.06h0c-1.71-3.68-1.49-8.1.82-11.41,3.26-4.67,9.39-7.91,14.38-10.07,7.39-3.19,15.31-5.06,23.19-6.46,5.38-.95,10.74-1.62,16.22-2.07.69-.06,1.29.52,1.29,1.25v4.9c0,.65-.47,1.19-1.09,1.25l-8.21.74c-6.08.71-12.08,1.68-18.07,2.97-3.98.86-7.85,1.95-11.69,3.29l-4.29,1.72c-2.48,1-4.85,2.29-7,3.93-1.6,1.23-2.95,2.57-3.68,4.38-.41,1.13-.54,2.29-.13,3.51Z"/>
        <path d="M31.68,58.98c-4.7-1.1-9.25-2.48-13.74-4.25-2.71-1.13-5.31-2.33-7.83-3.84-1.49-.89-2.87-1.8-4.22-2.9l1.92-1.7c2.03,1.35,4.03,2.57,6.2,3.61,3.12,1.54,6.29,2.74,9.59,3.78l8.1,2.16-.02,3.15Z"/>
        <path d="M31.67,46.15l-8.52-2.37c-.23-.06-.46-.14-.69-.22l-5.51-2.02,4.15-1.51c3.47,1.23,6.95,2.2,10.57,2.92v3.2Z"/>
      </g>
      <g>
        <path d="M43.72,60.51h1.19v10.97h-1.19v-10.97Z"/>
        <path d="M64.34,66.7v4.78h-1.14v-4.67c0-1.74-.9-2.63-2.43-2.63-1.74,0-2.83,1.1-2.83,2.98v4.32h-1.14v-4.67c0-1.74-.9-2.63-2.45-2.63-1.72,0-2.83,1.1-2.83,2.98v4.32h-1.14v-8.24h1.1v1.5c.6-.99,1.69-1.57,3.11-1.57s2.5.58,3.01,1.74c.61-1.07,1.82-1.74,3.35-1.74,2.06,0,3.42,1.16,3.42,3.53Z"/>
        <path d="M78.04,67.36c0,2.51-1.8,4.2-4.22,4.2-1.35,0-2.51-.56-3.22-1.63v4.59h-1.14v-11.28h1.1v1.63c.69-1.1,1.87-1.69,3.27-1.69,2.42,0,4.22,1.69,4.22,4.18ZM76.9,67.36c0-1.91-1.37-3.21-3.16-3.21s-3.16,1.3-3.16,3.21,1.35,3.21,3.16,3.21,3.16-1.28,3.16-3.21Z"/>
        <path d="M81.54,67.36c0-2.44,1.84-4.18,4.32-4.18s4.3,1.74,4.3,4.18-1.82,4.2-4.3,4.2-4.32-1.75-4.32-4.2ZM89,67.36c0-1.93-1.34-3.21-3.14-3.21s-3.16,1.28-3.16,3.21,1.35,3.21,3.16,3.21,3.14-1.28,3.14-3.21Z"/>
        <path d="M98.77,63.17v1.08c-.1,0-.19-.02-.27-.02-1.77,0-2.85,1.1-2.85,3.04v4.2h-1.14v-8.24h1.1v1.61c.53-1.1,1.61-1.68,3.17-1.68Z"/>
        <path d="M107.68,70.97c-.45.39-1.13.58-1.79.58-1.59,0-2.48-.88-2.48-2.4v-4.98h-1.51v-.94h1.51v-1.8h1.14v1.8h2.58v.94h-2.58v4.92c0,.97.52,1.5,1.47,1.5.47,0,.93-.14,1.26-.42l.4.8Z"/>
        <path d="M118.16,66.37v5.11h-1.1v-1.28c-.52.85-1.51,1.36-2.92,1.36-1.92,0-3.09-.97-3.09-2.4,0-1.27.84-2.33,3.27-2.33h2.69v-.5c0-1.41-.82-2.18-2.4-2.18-1.1,0-2.13.38-2.82.97l-.52-.83c.85-.71,2.11-1.11,3.45-1.11,2.19,0,3.43,1.07,3.43,3.2ZM117.02,69v-1.35h-2.66c-1.64,0-2.17.63-2.17,1.47,0,.96.79,1.55,2.14,1.55s2.24-.6,2.69-1.68Z"/>
        <path d="M122.46,67.36c0-2.46,1.84-4.18,4.37-4.18,1.43,0,2.64.55,3.32,1.63l-.85.56c-.58-.83-1.48-1.22-2.46-1.22-1.85,0-3.21,1.28-3.21,3.21s1.35,3.21,3.21,3.21c.98,0,1.89-.38,2.46-1.21l.85.56c-.68,1.07-1.89,1.63-3.32,1.63-2.53,0-4.37-1.74-4.37-4.2Z"/>
        <path d="M134.14,60.63c0-.42.37-.78.84-.78s.84.34.84.77c0,.45-.35.81-.84.81s-.84-.36-.84-.8ZM134.4,63.23h1.14v8.24h-1.14v-8.24Z"/>
        <path d="M139.89,67.36c0-2.44,1.84-4.18,4.32-4.18s4.3,1.74,4.3,4.18-1.82,4.2-4.3,4.2-4.32-1.75-4.32-4.2ZM147.35,67.36c0-1.93-1.34-3.21-3.14-3.21s-3.16,1.28-3.16,3.21,1.35,3.21,3.16,3.21,3.14-1.28,3.14-3.21Z"/>
        <path d="M160.65,66.7v4.78h-1.14v-4.67c0-1.74-.93-2.63-2.55-2.63-1.82,0-2.96,1.1-2.96,2.98v4.32h-1.14v-8.24h1.1v1.52c.61-1,1.76-1.58,3.22-1.58,2.06,0,3.48,1.16,3.48,3.53Z"/>
        <path d="M173.18,67.7h-7.09c.13,1.72,1.48,2.87,3.33,2.87,1.03,0,1.95-.36,2.59-1.08l.64.72c-.76.88-1.93,1.35-3.27,1.35-2.64,0-4.45-1.75-4.45-4.2s1.76-4.18,4.14-4.18,4.11,1.71,4.11,4.18c0,.09-.02.22-.02.34ZM166.09,66.87h6.01c-.14-1.61-1.35-2.74-3.01-2.74s-2.85,1.13-3,2.74Z"/>
        <path d="M176.37,70.54l.52-.88c.68.52,1.82.92,3.01.92,1.61,0,2.27-.53,2.27-1.35,0-2.15-5.49-.45-5.49-3.71,0-1.35,1.19-2.35,3.35-2.35,1.1,0,2.29.3,3,.77l-.5.89c-.74-.5-1.63-.71-2.5-.71-1.53,0-2.21.58-2.21,1.36,0,2.22,5.49.55,5.49,3.71,0,1.43-1.29,2.35-3.5,2.35-1.4,0-2.76-.44-3.45-1.02Z"/>
      </g>
      <g>
        <path d="M71.45.18h12.23c.74,0,1.42.45,1.7,1.14l12.51,30.5h.6L111,1.31c.28-.69.95-1.14,1.7-1.14h12.23c1.01,0,1.84.82,1.84,1.84v47.44c0,1.01-.82,1.84-1.84,1.84h-8.36c-1.01,0-1.84-.82-1.84-1.84v-29.56h-.42l-11.82,29.91c-.28.7-.95,1.16-1.71,1.16h-5.19c-.75,0-1.43-.46-1.71-1.16l-11.82-30.08h-.42v29.73c0,1.01-.82,1.84-1.84,1.84h-8.36c-1.01,0-1.84-.82-1.84-1.84V2.01c0-1.01.82-1.84,1.84-1.84Z"/>
        <path d="M182.39,48.86L166.39,1.42c-.25-.75-.95-1.25-1.74-1.25h-13.81c-.79,0-1.49.5-1.74,1.25l-16,47.44c-.4,1.19.48,2.42,1.74,2.42h9.37c.8,0,1.51-.52,1.75-1.29l2.96-9.44h17.65l2.97,9.44c.24.76.95,1.29,1.75,1.29h9.37c1.26,0,2.14-1.23,1.74-2.42ZM151.85,31.17l5.68-18.12h.4l5.69,18.12h-11.76Z"/>
      </g>
    </g>
  </g>
</svg>